<svg xmlns="http://www.w3.org/2000/svg" viewBox="0 0 198 175.5"><defs><style>.cls-1,.cls-3{fill:#ffe119;}.cls-2{fill:#1600a3;}.cls-3{stroke:#1600a3;stroke-miterlimit:10;stroke-width:3.03px;}</style></defs><g id="Layer_2" data-name="Layer 2"><g id="Layer_1-2" data-name="Layer 1"><path class="cls-1" d="M107,169.73,8.5,85.81A24.07,24.07,0,0,1,16,44.8L138,1.42a24.07,24.07,0,0,1,31.74,27l-23.41,127.3A24.07,24.07,0,0,1,107,169.73Z"/><path class="cls-2" d="M198,41.17v92.44c0,9.32-7,16.87-15.67,16.87H15.67C7,150.48,0,142.93,0,133.61V41.17A17.33,17.33,0,0,1,6,27.93a15,15,0,0,1,9.71-3.63H182.33A14.88,14.88,0,0,1,192,27.94,17.31,17.31,0,0,1,198,41.17Z"/><path class="cls-3" d="M187.11,141.06,99,60.64,10.8,141.07A14.13,14.13,0,0,0,20,144.5H177.91A14.09,14.09,0,0,0,187.11,141.06Z"/><path class="cls-3" d="M187.11,34.05,99,114.48,10.8,34.05A14.14,14.14,0,0,1,20,30.61H177.91A14.14,14.14,0,0,1,187.11,34.05Z"/></g></g></svg>