<svg xmlns="http://www.w3.org/2000/svg" viewBox="0 0 182.55 175.5"><defs><style>.cls-1{fill:#ffe119;}.cls-2{fill:#1600a3;}</style></defs><g id="Layer_2" data-name="Layer 2"><g id="Layer_1-2" data-name="Layer 1"><path class="cls-1" d="M107,169.73,8.47,85.81A24.07,24.07,0,0,1,16,44.8L138,1.42a24.07,24.07,0,0,1,31.74,27L146.3,155.76A24.07,24.07,0,0,1,107,169.73Z"/><circle class="cls-2" cx="103.89" cy="83.83" r="78.66"/><path class="cls-1" d="M105.62,50.75l8.11,21.93a1.55,1.55,0,0,0,1.4,1l23.36.94a1.55,1.55,0,0,1,.91,2.77L121,91.89a1.57,1.57,0,0,0-.53,1.65l6.33,22.51a1.55,1.55,0,0,1-2.36,1.71l-19.45-13a1.56,1.56,0,0,0-1.73,0l-19.45,13a1.55,1.55,0,0,1-2.36-1.71l6.33-22.51a1.56,1.56,0,0,0-.54-1.65L68.93,77.4a1.55,1.55,0,0,1,.9-2.77l23.37-.94a1.53,1.53,0,0,0,1.39-1l8.11-21.93A1.55,1.55,0,0,1,105.62,50.75Z"/></g></g></svg>